<mxfile host="app.diagrams.net" modified="2022-06-12T16:25:49.352Z" agent="5.0 (Windows NT 10.0; Win64; x64) AppleWebKit/537.36 (KHTML, like Gecko) Chrome/102.0.5005.63 Safari/537.36" etag="BHg5WlGHBh-KW3eYNJTy" version="20.0.0" type="github">
  <diagram name="Page-1" id="0783ab3e-0a74-02c8-0abd-f7b4e66b4bec">
    <mxGraphModel dx="1422" dy="786" grid="1" gridSize="10" guides="1" tooltips="1" connect="1" arrows="1" fold="1" page="1" pageScale="1" pageWidth="850" pageHeight="1100" background="none" math="0" shadow="0">
      <root>
        <mxCell id="0" />
        <mxCell id="1" parent="0" />
        <mxCell id="1c1d494c118603dd-1" value="task-compute" style="swimlane;html=1;childLayout=stackLayout;startSize=20;rounded=0;shadow=0;comic=0;labelBackgroundColor=none;strokeWidth=1;fontFamily=Verdana;fontSize=12;align=center;" parent="1" vertex="1">
          <mxGeometry x="20" y="30" width="1170" height="990" as="geometry" />
        </mxCell>
        <mxCell id="1c1d494c118603dd-3" value="EventConsumer" style="swimlane;html=1;startSize=20;" parent="1c1d494c118603dd-1" vertex="1">
          <mxGeometry y="20" width="410" height="970" as="geometry" />
        </mxCell>
        <mxCell id="_TT01iQ1H0WmgE9Qsd2v-4" style="edgeStyle=orthogonalEdgeStyle;rounded=0;orthogonalLoop=1;jettySize=auto;html=1;exitX=0.5;exitY=1;exitDx=0;exitDy=0;" parent="1c1d494c118603dd-3" source="_TT01iQ1H0WmgE9Qsd2v-2" target="_TT01iQ1H0WmgE9Qsd2v-3" edge="1">
          <mxGeometry relative="1" as="geometry" />
        </mxCell>
        <mxCell id="_TT01iQ1H0WmgE9Qsd2v-2" value="" style="ellipse;fillColor=#000000;strokeColor=none;" parent="1c1d494c118603dd-3" vertex="1">
          <mxGeometry x="165" y="30" width="30" height="30" as="geometry" />
        </mxCell>
        <mxCell id="_TT01iQ1H0WmgE9Qsd2v-6" style="edgeStyle=orthogonalEdgeStyle;rounded=0;orthogonalLoop=1;jettySize=auto;html=1;exitX=0.5;exitY=1;exitDx=0;exitDy=0;entryX=0.5;entryY=0;entryDx=0;entryDy=0;" parent="1c1d494c118603dd-3" source="_TT01iQ1H0WmgE9Qsd2v-3" target="_TT01iQ1H0WmgE9Qsd2v-5" edge="1">
          <mxGeometry relative="1" as="geometry" />
        </mxCell>
        <mxCell id="_TT01iQ1H0WmgE9Qsd2v-3" value="consume batch events" style="html=1;align=center;verticalAlign=top;rounded=1;absoluteArcSize=1;arcSize=10;dashed=0;" parent="1c1d494c118603dd-3" vertex="1">
          <mxGeometry x="110" y="110" width="140" height="40" as="geometry" />
        </mxCell>
        <mxCell id="_TT01iQ1H0WmgE9Qsd2v-5" value="List&amp;lt;AbstractEvent&amp;gt; events" style="html=1;" parent="1c1d494c118603dd-3" vertex="1">
          <mxGeometry x="97.5" y="190" width="165" height="50" as="geometry" />
        </mxCell>
        <mxCell id="_TT01iQ1H0WmgE9Qsd2v-10" style="edgeStyle=orthogonalEdgeStyle;rounded=0;orthogonalLoop=1;jettySize=auto;html=1;exitX=0.5;exitY=1;exitDx=0;exitDy=0;entryX=0.5;entryY=0;entryDx=0;entryDy=0;" parent="1c1d494c118603dd-3" source="_TT01iQ1H0WmgE9Qsd2v-7" target="_TT01iQ1H0WmgE9Qsd2v-9" edge="1">
          <mxGeometry relative="1" as="geometry">
            <Array as="points">
              <mxPoint x="185" y="330" />
            </Array>
          </mxGeometry>
        </mxCell>
        <mxCell id="_TT01iQ1H0WmgE9Qsd2v-7" value="groupByCustomerId(events)" style="html=1;align=center;verticalAlign=top;rounded=1;absoluteArcSize=1;arcSize=10;dashed=0;" parent="1c1d494c118603dd-3" vertex="1">
          <mxGeometry x="95" y="290" width="170" height="40" as="geometry" />
        </mxCell>
        <mxCell id="_TT01iQ1H0WmgE9Qsd2v-8" style="edgeStyle=orthogonalEdgeStyle;rounded=0;orthogonalLoop=1;jettySize=auto;html=1;exitX=0.5;exitY=1;exitDx=0;exitDy=0;entryX=0.5;entryY=0;entryDx=0;entryDy=0;" parent="1c1d494c118603dd-3" source="_TT01iQ1H0WmgE9Qsd2v-5" edge="1">
          <mxGeometry relative="1" as="geometry">
            <mxPoint x="180" y="290" as="targetPoint" />
          </mxGeometry>
        </mxCell>
        <mxCell id="_TT01iQ1H0WmgE9Qsd2v-13" style="edgeStyle=orthogonalEdgeStyle;rounded=0;orthogonalLoop=1;jettySize=auto;html=1;exitX=0.5;exitY=1;exitDx=0;exitDy=0;entryX=0.472;entryY=-0.025;entryDx=0;entryDy=0;entryPerimeter=0;" parent="1c1d494c118603dd-3" source="_TT01iQ1H0WmgE9Qsd2v-9" target="_TT01iQ1H0WmgE9Qsd2v-12" edge="1">
          <mxGeometry relative="1" as="geometry">
            <Array as="points">
              <mxPoint x="180" y="430" />
            </Array>
          </mxGeometry>
        </mxCell>
        <mxCell id="_TT01iQ1H0WmgE9Qsd2v-14" value="for entrySet" style="edgeLabel;html=1;align=center;verticalAlign=middle;resizable=0;points=[];" parent="_TT01iQ1H0WmgE9Qsd2v-13" vertex="1" connectable="0">
          <mxGeometry x="-0.295" relative="1" as="geometry">
            <mxPoint y="1" as="offset" />
          </mxGeometry>
        </mxCell>
        <mxCell id="_TT01iQ1H0WmgE9Qsd2v-9" value="Map&amp;lt;String, List&amp;lt;Event&amp;gt;&amp;gt; customerEventGroup" style="html=1;" parent="1c1d494c118603dd-3" vertex="1">
          <mxGeometry x="40" y="380" width="290" height="50" as="geometry" />
        </mxCell>
        <mxCell id="_TT01iQ1H0WmgE9Qsd2v-16" style="edgeStyle=orthogonalEdgeStyle;rounded=0;orthogonalLoop=1;jettySize=auto;html=1;exitX=0.5;exitY=1;exitDx=0;exitDy=0;entryX=0.5;entryY=0;entryDx=0;entryDy=0;" parent="1c1d494c118603dd-3" source="_TT01iQ1H0WmgE9Qsd2v-12" target="_TT01iQ1H0WmgE9Qsd2v-15" edge="1">
          <mxGeometry relative="1" as="geometry" />
        </mxCell>
        <mxCell id="_TT01iQ1H0WmgE9Qsd2v-12" value="groupByCustomerTaskGroup(List&amp;lt;Event&amp;gt;,customerId)" style="html=1;align=center;verticalAlign=top;rounded=1;absoluteArcSize=1;arcSize=30;dashed=0;" parent="1c1d494c118603dd-3" vertex="1">
          <mxGeometry x="20" y="500" width="340" height="40" as="geometry" />
        </mxCell>
        <mxCell id="_TT01iQ1H0WmgE9Qsd2v-18" value="for entrySet" style="edgeStyle=orthogonalEdgeStyle;rounded=0;orthogonalLoop=1;jettySize=auto;html=1;exitX=0.5;exitY=1;exitDx=0;exitDy=0;entryX=0.5;entryY=0;entryDx=0;entryDy=0;" parent="1c1d494c118603dd-3" source="_TT01iQ1H0WmgE9Qsd2v-15" target="_TT01iQ1H0WmgE9Qsd2v-19" edge="1">
          <mxGeometry relative="1" as="geometry">
            <mxPoint x="190" y="710" as="targetPoint" />
          </mxGeometry>
        </mxCell>
        <mxCell id="_TT01iQ1H0WmgE9Qsd2v-15" value="Map&amp;lt;CustomerTaskGroup, List&amp;lt;Event&amp;gt;&amp;gt; &lt;br&gt;customerTaskGroupWithEvents" style="html=1;" parent="1c1d494c118603dd-3" vertex="1">
          <mxGeometry x="76.25" y="600" width="227.5" height="50" as="geometry" />
        </mxCell>
        <mxCell id="_TT01iQ1H0WmgE9Qsd2v-19" value="customerTaskGroup.batchCompute(events)" style="html=1;align=center;verticalAlign=top;rounded=1;absoluteArcSize=1;arcSize=10;dashed=0;" parent="1c1d494c118603dd-3" vertex="1">
          <mxGeometry x="65" y="720" width="250" height="40" as="geometry" />
        </mxCell>
        <mxCell id="_TT01iQ1H0WmgE9Qsd2v-37" value="CustomerTaskGroup" style="swimlane;html=1;startSize=20;fontStyle=1;collapsible=0;horizontal=1;swimlaneLine=1;strokeWidth=2;swimlaneFillColor=none;" parent="1c1d494c118603dd-1" vertex="1">
          <mxGeometry x="410" y="20" width="490" height="970" as="geometry" />
        </mxCell>
        <mxCell id="_TT01iQ1H0WmgE9Qsd2v-41" value="batchCompute" style="shape=umlFrame;tabPosition=left;html=1;boundedLbl=1;labelInHeader=1;width=100;height=30;" parent="_TT01iQ1H0WmgE9Qsd2v-37" vertex="1">
          <mxGeometry x="110" y="30" width="270" height="290" as="geometry" />
        </mxCell>
        <mxCell id="_TT01iQ1H0WmgE9Qsd2v-50" style="edgeStyle=orthogonalEdgeStyle;rounded=0;orthogonalLoop=1;jettySize=auto;html=1;exitX=0.5;exitY=1;exitDx=0;exitDy=0;entryX=0.5;entryY=0;entryDx=0;entryDy=0;" parent="_TT01iQ1H0WmgE9Qsd2v-37" source="_TT01iQ1H0WmgE9Qsd2v-43" target="_TT01iQ1H0WmgE9Qsd2v-49" edge="1">
          <mxGeometry relative="1" as="geometry" />
        </mxCell>
        <mxCell id="_TT01iQ1H0WmgE9Qsd2v-43" value="preBatchCompute" style="html=1;align=center;verticalAlign=top;rounded=1;absoluteArcSize=1;arcSize=10;dashed=0;" parent="_TT01iQ1H0WmgE9Qsd2v-37" vertex="1">
          <mxGeometry x="175" y="70" width="140" height="40" as="geometry" />
        </mxCell>
        <mxCell id="_TT01iQ1H0WmgE9Qsd2v-47" value="postBatchCompute" style="html=1;align=center;verticalAlign=top;rounded=1;absoluteArcSize=1;arcSize=10;dashed=0;" parent="_TT01iQ1H0WmgE9Qsd2v-37" vertex="1">
          <mxGeometry x="175" y="260" width="140" height="40" as="geometry" />
        </mxCell>
        <mxCell id="_TT01iQ1H0WmgE9Qsd2v-51" style="edgeStyle=orthogonalEdgeStyle;rounded=0;orthogonalLoop=1;jettySize=auto;html=1;exitX=0.5;exitY=1;exitDx=0;exitDy=0;entryX=0.5;entryY=0;entryDx=0;entryDy=0;" parent="_TT01iQ1H0WmgE9Qsd2v-37" source="_TT01iQ1H0WmgE9Qsd2v-49" target="_TT01iQ1H0WmgE9Qsd2v-47" edge="1">
          <mxGeometry relative="1" as="geometry" />
        </mxCell>
        <mxCell id="NjWFNTdcBR40jrqp_Nbi-6" style="edgeStyle=orthogonalEdgeStyle;rounded=0;orthogonalLoop=1;jettySize=auto;html=1;exitX=1;exitY=0.5;exitDx=0;exitDy=0;" edge="1" parent="_TT01iQ1H0WmgE9Qsd2v-37" source="_TT01iQ1H0WmgE9Qsd2v-49" target="NjWFNTdcBR40jrqp_Nbi-4">
          <mxGeometry relative="1" as="geometry">
            <Array as="points">
              <mxPoint x="410" y="190" />
              <mxPoint x="410" y="340" />
              <mxPoint x="240" y="340" />
            </Array>
          </mxGeometry>
        </mxCell>
        <mxCell id="_TT01iQ1H0WmgE9Qsd2v-49" value="for event exec compute(event)&lt;br&gt;" style="html=1;align=center;verticalAlign=top;rounded=1;absoluteArcSize=1;arcSize=10;dashed=0;" parent="_TT01iQ1H0WmgE9Qsd2v-37" vertex="1">
          <mxGeometry x="152.5" y="170" width="185" height="40" as="geometry" />
        </mxCell>
        <mxCell id="NjWFNTdcBR40jrqp_Nbi-4" value="compute" style="shape=umlFrame;tabPosition=left;html=1;boundedLbl=1;labelInHeader=1;width=70;height=30;" vertex="1" parent="_TT01iQ1H0WmgE9Qsd2v-37">
          <mxGeometry x="60" y="400" width="380" height="530" as="geometry" />
        </mxCell>
        <mxCell id="NjWFNTdcBR40jrqp_Nbi-14" value="no" style="edgeStyle=orthogonalEdgeStyle;rounded=0;orthogonalLoop=1;jettySize=auto;html=1;exitX=1;exitY=0.5;exitDx=0;exitDy=0;entryX=0.333;entryY=0.567;entryDx=0;entryDy=0;entryPerimeter=0;" edge="1" parent="_TT01iQ1H0WmgE9Qsd2v-37" source="NjWFNTdcBR40jrqp_Nbi-8" target="NjWFNTdcBR40jrqp_Nbi-11">
          <mxGeometry relative="1" as="geometry" />
        </mxCell>
        <mxCell id="NjWFNTdcBR40jrqp_Nbi-22" style="edgeStyle=orthogonalEdgeStyle;rounded=0;orthogonalLoop=1;jettySize=auto;html=1;exitX=0.5;exitY=1;exitDx=0;exitDy=0;entryX=0.5;entryY=0;entryDx=0;entryDy=0;" edge="1" parent="_TT01iQ1H0WmgE9Qsd2v-37" source="NjWFNTdcBR40jrqp_Nbi-8" target="NjWFNTdcBR40jrqp_Nbi-20">
          <mxGeometry relative="1" as="geometry" />
        </mxCell>
        <mxCell id="NjWFNTdcBR40jrqp_Nbi-8" value="inTimeFrame" style="rhombus;" vertex="1" parent="_TT01iQ1H0WmgE9Qsd2v-37">
          <mxGeometry x="190" y="440" width="100" height="35" as="geometry" />
        </mxCell>
        <mxCell id="NjWFNTdcBR40jrqp_Nbi-11" value="" style="shape=sumEllipse;perimeter=ellipsePerimeter;whiteSpace=wrap;html=1;backgroundOutline=1;" vertex="1" parent="_TT01iQ1H0WmgE9Qsd2v-37">
          <mxGeometry x="337.5" y="440" width="30" height="30" as="geometry" />
        </mxCell>
        <mxCell id="NjWFNTdcBR40jrqp_Nbi-20" value="isRepeat" style="rhombus;" vertex="1" parent="_TT01iQ1H0WmgE9Qsd2v-37">
          <mxGeometry x="192.5" y="520" width="95" height="30" as="geometry" />
        </mxCell>
        <mxCell id="NjWFNTdcBR40jrqp_Nbi-19" style="edgeStyle=orthogonalEdgeStyle;rounded=0;orthogonalLoop=1;jettySize=auto;html=1;exitX=1;exitY=0.5;exitDx=0;exitDy=0;entryX=0;entryY=0.441;entryDx=0;entryDy=0;entryPerimeter=0;" edge="1" parent="1c1d494c118603dd-1" source="_TT01iQ1H0WmgE9Qsd2v-19" target="_TT01iQ1H0WmgE9Qsd2v-41">
          <mxGeometry relative="1" as="geometry">
            <Array as="points">
              <mxPoint x="450" y="760" />
              <mxPoint x="450" y="178" />
            </Array>
          </mxGeometry>
        </mxCell>
      </root>
    </mxGraphModel>
  </diagram>
</mxfile>
